<?xml version="1.0" encoding="utf-8"?>
<!-- Generator: Adobe Illustrator 16.0.0, SVG Export Plug-In . SVG Version: 6.00 Build 0)  -->
<!DOCTYPE svg PUBLIC "-//W3C//DTD SVG 1.1//EN" "http://www.w3.org/Graphics/SVG/1.1/DTD/svg11.dtd">
<svg version="1.1" id="Layer_1" xmlns="http://www.w3.org/2000/svg" xmlns:xlink="http://www.w3.org/1999/xlink" x="0px" y="0px"
	 width="198px" height="100px" viewBox="0 0 198 100" enable-background="new 0 0 198 100" xml:space="preserve">
<g>
	<path fill="#FFFFFF" d="M8.655,12.815v4.633c0.021,1.267,0.039,3.178,0.049,3.351c0.011,0.172,0.073,0.37,0.183,0.592
		c0.156,0.311,0.423,0.5,0.801,0.566c0.166,0.032,0.449,0.049,0.849,0.049h1.917v1.258H0.022v-1.242h2.15
		c0.565,0,0.96-0.05,1.182-0.15c0.401-0.178,0.622-0.589,0.667-1.233c0-0.201,0.011-2.069,0.033-3.191V6.317
		C4.033,5.228,4.022,3.386,4.022,3.153C3.977,2.52,3.755,2.114,3.354,1.937C3.133,1.825,2.738,1.77,2.173,1.77h-2.15V0.518h13.281
		c1.744,0,2.95,0.083,3.616,0.25c1.41,0.366,2.55,1.133,3.416,2.299c0.8,1.078,1.2,2.327,1.2,3.75c0,1.354-0.361,2.528-1.083,3.516
		c-0.8,1.1-1.995,1.839-3.583,2.216c-0.734,0.178-1.934,0.267-3.601,0.267H8.655z M8.655,10.383h2.783
		c1.733,0,2.944-0.206,3.633-0.617c0.999-0.588,1.5-1.638,1.5-3.149c0-1.345-0.511-2.338-1.533-2.984
		c-0.5-0.31-1.067-0.511-1.699-0.6c-0.356-0.055-0.95-0.083-1.784-0.083H8.655V10.383z"/>
	<path fill="#FFFFFF" d="M43.235,6.317v7.966c0,1.744,0.077,2.898,0.233,3.465c0.301,1.09,1,1.883,2.101,2.383
		c0.832,0.39,1.744,0.584,2.732,0.584c1.811,0,3.127-0.566,3.949-1.7c0.422-0.589,0.661-1.26,0.717-2.016
		c0.044-0.589,0.066-1.495,0.066-2.716V6.317c-0.022-1.255-0.039-3.149-0.05-3.327c-0.011-0.177-0.072-0.372-0.183-0.583
		c-0.156-0.321-0.427-0.517-0.816-0.583c-0.156-0.033-0.433-0.05-0.833-0.05h-2.433V0.518h11.582v1.256h-1.917
		c-0.566,0-0.961,0.056-1.183,0.167c-0.4,0.167-0.622,0.572-0.667,1.215c0,0.211-0.011,2.049-0.033,3.16v7.966
		c0,1.654-0.009,2.666-0.026,3.033c-0.017,0.366-0.081,0.777-0.191,1.233c-0.422,1.854-1.538,3.232-3.349,4.132
		c-1.444,0.71-3.195,1.066-5.25,1.066c-2.011,0-3.739-0.327-5.183-0.984c-1.911-0.854-3.105-2.349-3.583-4.481
		c-0.189-0.833-0.284-2.167-0.284-3.999V6.317c-0.022-1.255-0.039-3.149-0.049-3.327c-0.011-0.177-0.073-0.372-0.183-0.583
		c-0.156-0.321-0.428-0.517-0.817-0.583c-0.166-0.033-0.449-0.05-0.85-0.05h-2.266V0.518h12.798v1.256h-2.149
		c-0.566,0-0.96,0.056-1.183,0.167c-0.4,0.167-0.623,0.572-0.667,1.215C43.268,3.368,43.256,5.206,43.235,6.317"/>
	<path fill="#FFFFFF" d="M91.98,11.565c1.29,0.323,2.283,0.706,2.983,1.15c0.722,0.456,1.286,1.089,1.691,1.899
		c0.405,0.812,0.608,1.718,0.608,2.717c0,1.644-0.478,3.005-1.433,4.083c-0.855,0.956-1.961,1.539-3.316,1.75
		c-0.389,0.065-1.428,0.099-3.116,0.099H75.117v-1.251h1.916c0.567,0,0.966-0.05,1.2-0.149c0.389-0.177,0.605-0.589,0.65-1.233
		c0-0.201,0.011-2.061,0.033-3.182V6.317c-0.022-1.255-0.039-3.149-0.051-3.322c-0.011-0.172-0.071-0.37-0.183-0.592
		c-0.155-0.311-0.422-0.504-0.8-0.583c-0.167-0.034-0.45-0.05-0.85-0.05h-1.916V0.518h10.849c2.288,0,3.821,0.055,4.599,0.167
		c2.022,0.278,3.577,0.989,4.666,2.133c0.922,0.956,1.383,2.139,1.383,3.55c0,1.489-0.539,2.722-1.617,3.699
		C94.319,10.688,93.314,11.188,91.98,11.565 M83.516,10.232h3.299c1.344,0,2.355-0.156,3.033-0.467
		c0.578-0.267,1.022-0.728,1.333-1.382c0.255-0.544,0.384-1.139,0.384-1.783c0-1.566-0.617-2.655-1.85-3.266
		c-0.533-0.256-1.716-0.384-3.549-0.384h-2.649V10.232z M83.516,20.831h3c1.488,0,2.46-0.055,2.916-0.167
		c0.967-0.234,1.683-0.733,2.15-1.5c0.399-0.656,0.6-1.422,0.6-2.299c0-1.667-0.6-2.822-1.799-3.467
		c-0.5-0.267-1.083-0.433-1.75-0.5c-0.244-0.021-0.861-0.033-1.849-0.033h-3.266V20.831z"/>
	<path fill="#FFFFFF" d="M134.327,13.465v9.798h-21.046v-1.248h2.249c0.568,0,0.967-0.056,1.202-0.167
		c0.387-0.177,0.604-0.589,0.648-1.233c0-0.201,0.01-2.047,0.033-3.168V6.316c-0.023-1.254-0.039-3.153-0.049-3.326
		c-0.012-0.171-0.073-0.37-0.185-0.591c-0.155-0.322-0.423-0.518-0.8-0.583c-0.167-0.033-0.449-0.05-0.851-0.05h-2.249V0.518h12.765
		v1.263h-2.15c-0.577,0-0.972,0.056-1.183,0.167c-0.4,0.177-0.622,0.583-0.665,1.216c0,0.211-0.013,2.041-0.034,3.151v14.515h4.896
		c1,0,1.682-0.019,2.043-0.059c0.359-0.038,0.725-0.124,1.09-0.259c1.646-0.632,2.616-1.948,2.917-3.949
		c0.1-0.711,0.144-1.744,0.134-3.099H134.327z"/>
	<path fill="#FFFFFF" d="M153.646,17.448V6.317c-0.021-1.255-0.037-3.146-0.049-3.318s-0.073-0.37-0.183-0.592
		c-0.157-0.311-0.429-0.504-0.817-0.583c-0.155-0.033-0.434-0.05-0.833-0.05h-2.15V0.518h12.433v1.256h-1.917
		c-0.577,0-0.972,0.056-1.185,0.167c-0.398,0.177-0.62,0.584-0.665,1.216c0,0.211-0.012,2.048-0.034,3.16v11.131
		c0.022,1.1,0.034,2.968,0.034,3.191c0.045,0.644,0.267,1.055,0.665,1.233c0.225,0.1,0.619,0.15,1.185,0.15h1.917v1.242h-12.433
		v-1.242h2.15c0.566,0,0.961-0.05,1.183-0.15c0.4-0.178,0.623-0.589,0.668-1.233C153.614,20.438,153.624,18.57,153.646,17.448"/>
	<path fill="#FFFFFF" d="M197.978,0.518v8.916h-1.27c-0.212-1.389-0.49-2.417-0.832-3.083c-0.691-1.334-1.656-2.278-2.901-2.833
		c-0.721-0.324-1.522-0.483-2.4-0.483c-2.364,0-5.056,0.347-6.297,2.699c-0.811,1.539-1.231,3.678-1.231,6.432
		c0,5.866,3.459,8.798,7.47,8.798c2.488,0,4.232-1.004,5.23-3.016c0.436-0.877,0.756-2.01,0.968-3.4h1.264
		c-0.122,1.766-0.374,3.106-0.751,4.017c-0.843,2.01-2.199,3.449-4.065,4.315c-1.255,0.578-2.766,0.866-4.533,0.866
		c-2.71,0-4.971-0.732-6.782-2.199c-1.233-0.977-2.178-2.205-2.832-3.682c-0.856-1.877-1.282-3.888-1.282-6.033
		c0-3.744,1.154-6.765,3.465-9.065c1.82-1.833,4.122-2.749,6.899-2.749c1.645,0,4.514,0.366,5.646,1.1
		c0.555,0.356,1.266,0.966,2.134,1.833l0.866-2.433H197.978z"/>
</g>
<g>
	<path fill="#FFFFFF" d="M103.153,87.031c0,0.526-0.428,0.955-0.955,0.955h-6.395c-0.527,0-0.956-0.429-0.956-0.955
		c0-0.529,0.429-0.958,0.956-0.958h6.395C102.726,86.073,103.153,86.502,103.153,87.031"/>
	<path fill="#FFFFFF" d="M101.543,93.993h-0.018c-0.148-1.335-1.278-2.373-2.652-2.373c-1.375,0-2.504,1.038-2.652,2.373h-0.018
		l0.014,0.028c-0.009,0.088-0.014,0.178-0.014,0.267c0,1.059,0.604,1.444,1.166,2.221c0.648,0.897,1.515,2.346,1.623,3.462
		c-0.081-0.855,1.091-2.91,1.552-3.603c0.468-0.709,0.999-1.172,0.999-2.08c0-0.089-0.006-0.177-0.015-0.265L101.543,93.993z"/>
	<path fill="#FFFFFF" d="M95.168,85.168c-1.246-0.919-2.495-1.804-3.824-2.513c-1.327-0.699-2.736-1.242-4.187-1.357
		c-0.359-0.035-0.726-0.042-1.082-0.021c-0.381,0.02-0.724,0.066-1.087,0.131c-0.715,0.127-1.403,0.371-1.987,0.76
		c-0.584,0.391-1.031,0.949-1.227,1.655c-0.217,0.7-0.226,1.479-0.252,2.251c-0.168-0.753-0.288-1.535-0.175-2.346
		c0.063-0.401,0.193-0.805,0.407-1.172c0.221-0.381,0.504-0.672,0.831-0.947c0.651-0.539,1.445-0.834,2.229-1.025
		c0.39-0.092,0.811-0.145,1.197-0.176c0.413-0.029,0.817-0.029,1.224,0.006c1.626,0.148,3.144,0.791,4.459,1.646
		C93.019,82.917,94.174,83.981,95.168,85.168"/>
	<path fill="#FFFFFF" d="M89.421,81.357c-0.373,0.532-0.76,0.958-1.146,1.368c-0.386,0.404-0.771,0.777-1.142,1.146
		c-0.369,0.371-0.727,0.729-1.057,1.113c-0.332,0.389-0.635,0.795-0.918,1.385c-0.345-0.566-0.323-1.311-0.111-1.933
		c0.214-0.632,0.596-1.175,1.042-1.616c0.447-0.443,0.964-0.793,1.52-1.05C88.167,81.524,88.765,81.345,89.421,81.357"/>
	<path fill="#FFFFFF" d="M90.497,84.161c0-0.451,0.365-0.814,0.816-0.814c0.45,0,0.816,0.363,0.816,0.814
		c0,0.45-0.366,0.815-0.816,0.815C90.862,84.977,90.497,84.611,90.497,84.161"/>
	<path fill="#FFFFFF" d="M102.831,85.168c0.994-1.187,2.149-2.251,3.472-3.108c1.316-0.855,2.835-1.498,4.462-1.646
		c0.405-0.035,0.812-0.035,1.224-0.006c0.385,0.031,0.807,0.084,1.197,0.176c0.784,0.191,1.578,0.486,2.229,1.025
		c0.325,0.275,0.608,0.566,0.829,0.947c0.215,0.367,0.344,0.771,0.407,1.172c0.113,0.811-0.007,1.593-0.175,2.346
		c-0.026-0.772-0.034-1.551-0.252-2.251c-0.196-0.706-0.645-1.265-1.228-1.655c-0.583-0.389-1.272-0.633-1.986-0.76
		c-0.363-0.064-0.706-0.111-1.087-0.131c-0.354-0.021-0.722-0.014-1.084,0.021c-1.448,0.115-2.857,0.658-4.186,1.357
		C105.326,83.364,104.075,84.249,102.831,85.168"/>
	<path fill="#FFFFFF" d="M108.578,81.357c0.656-0.013,1.254,0.167,1.813,0.414c0.557,0.257,1.073,0.606,1.521,1.05
		c0.444,0.441,0.825,0.984,1.04,1.616c0.214,0.622,0.235,1.366-0.11,1.933c-0.282-0.588-0.586-0.996-0.917-1.385
		c-0.332-0.385-0.688-0.742-1.059-1.113c-0.371-0.367-0.756-0.742-1.141-1.146C109.339,82.315,108.952,81.89,108.578,81.357"/>
	<path fill="#FFFFFF" d="M107.504,84.161c0-0.451-0.367-0.814-0.815-0.814c-0.452,0-0.817,0.363-0.817,0.814
		c0,0.45,0.365,0.815,0.817,0.815C107.137,84.977,107.504,84.611,107.504,84.161"/>
	<polygon fill="#FFFFFF" points="99.001,83.132 97.892,85.051 100.108,85.051 99.001,83.132 97.892,85.051 100.108,85.051 	"/>
	<path fill="#FFFFFF" d="M96.652,89.052c-0.08,1.023-0.468,2.067-1.26,2.885c-0.392,0.406-0.871,0.732-1.391,0.958
		c-0.579,0.243-1.146,0.325-1.747,0.308c-0.591-0.032-1.199-0.185-1.733-0.528c-0.546-0.338-0.95-0.865-1.16-1.421
		c-0.405-1.124-0.243-2.187,0.059-3.164c0.304,0.983,0.515,1.969,0.984,2.644c0.227,0.331,0.505,0.578,0.823,0.725
		c0.32,0.161,0.703,0.245,1.096,0.265c0.386,0.02,0.817-0.032,1.167-0.134c0.402-0.125,0.792-0.306,1.154-0.539
		C95.382,90.591,96,89.855,96.652,89.052"/>
	<path fill="#FFFFFF" d="M89.421,88.542c0-0.999,0.81-1.81,1.809-1.81s1.81,0.811,1.81,1.81s-0.811,1.81-1.81,1.81
		S89.421,89.541,89.421,88.542"/>
	<path fill="#FFFFFF" d="M101.105,89.052c0.651,0.804,1.271,1.539,2.007,1.997c0.363,0.233,0.752,0.416,1.153,0.539
		c0.35,0.102,0.779,0.153,1.168,0.134c0.393-0.02,0.776-0.104,1.097-0.265c0.316-0.146,0.596-0.394,0.824-0.725
		c0.47-0.675,0.68-1.66,0.984-2.644c0.302,0.978,0.464,2.04,0.059,3.164c-0.21,0.556-0.613,1.083-1.16,1.421
		c-0.535,0.344-1.143,0.496-1.733,0.528c-0.601,0.018-1.17-0.064-1.749-0.308c-0.519-0.226-0.999-0.552-1.39-0.958
		C101.575,91.119,101.185,90.075,101.105,89.052"/>
	<path fill="#FFFFFF" d="M108.339,88.542c0-0.999-0.812-1.81-1.811-1.81c-1.001,0-1.811,0.811-1.811,1.81s0.81,1.81,1.811,1.81
		C107.527,90.352,108.339,89.541,108.339,88.542"/>
</g>
</svg>
